# xmcd CD database file
#
# Track frame offsets:
#	150
#	20767
#	41350
#	63305
#	85895
#	97937
#	117030
#	127442
#	145767
#	162982
#	182077
#
# Disc length: 2660 seconds
#
# Revision: 3
# Processed by: cddbd v1.4PL0 Copyright (c) Steve Scherf et al.
# Submitted via: jetAudio 5
#
DISCID=920a620b
DTITLE=Desconhecido - Desconhecido
DYEAR=1900
DGENRE=Blues
TTITLE0=Trilha 1
TTITLE1=Trilha 2
TTITLE2=Trilha 3
TTITLE3=Trilha 4
TTITLE4=Trilha 5
TTITLE5=Trilha 6
TTITLE6=Trilha 7
TTITLE7=Trilha 8
TTITLE8=Trilha 9
TTITLE9=Trilha 10
TTITLE10=Trilha 11
EXTD=ID3G:   0
EXTT0=
EXTT1=
EXTT2=
EXTT3=
EXTT4=
EXTT5=
EXTT6=
EXTT7=
EXTT8=
EXTT9=
EXTT10=
PLAYORDER=
